<?xml version="1.0" encoding="utf-8"?>
<!-- Generator: Adobe Illustrator 13.0.0, SVG Export Plug-In . SVG Version: 6.00 Build 14948)  -->
<!DOCTYPE svg PUBLIC "-//W3C//DTD SVG 1.1//EN" "http://www.w3.org/Graphics/SVG/1.1/DTD/svg11.dtd">
<svg version="1.1" id="Layer_1" xmlns="http://www.w3.org/2000/svg" xmlns:xlink="http://www.w3.org/1999/xlink" x="0px" y="0px"
	 width="19px" height="19px" viewBox="0 0 19 19" enable-background="new 0 0 19 19" xml:space="preserve">
<path fill="#FFFFFF" d="M12.602,10.063H8c0,0-1.5,0.101-1.8,1.7v2.4h8v-2.5C14.201,11.664,14.201,10.363,12.602,10.063
	 M13.201,13.463h-6v-1.399c0.1-0.8,1.1-1.101,1.1-1.101h3.801c0.699,0,1.1,1.101,1.1,1.101V13.463z"/>
<path fill="#FFFFFF" d="M3,8.063c0.7-3.6,3.7-6.2,7.4-6.2c1.201,0,2.301,0.3,3.201,0.8c0.1-0.3,0.299-0.5,0.5-0.7
	c-1.201-0.6-2.5-1-3.9-1c-4.101,0-7.601,3-8.4,7h0.4C2.5,7.863,2.801,7.963,3,8.063 M16.701,3.963c-0.1,0.2-0.301,0.5-0.5,0.6
	c1.1,1.4,1.799,3.1,1.799,5c0,1.101-0.199,2.101-0.6,3h0.201c0.398,0,0.5,0.2,0.6,0.399c0.4-1,0.6-2.1,0.6-3.299
	C18.801,7.463,18,5.463,16.701,3.963 M10.4,17.363c-3.8,0-6.9-2.8-7.5-6.5c-0.2,0.1-0.5,0.2-0.7,0.2s-0.3,0-0.4-0.101
	c0.6,4.301,4.1,7.5,8.5,7.5c2.4,0,4.6-1,6.199-2.699c-0.398,0-0.699-0.2-0.898-0.4C14.201,16.563,12.4,17.363,10.4,17.363"/>
<path fill="#FFFFFF" d="M15.201,0.664c-1.301,0-2.4,1.1-2.4,2.4s1.1,2.4,2.4,2.4c1.299,0,2.4-1.1,2.4-2.4S16.5,0.664,15.201,0.664
	 M15.201,4.664c-0.801,0-1.5-0.7-1.5-1.5c0-0.9,0.699-1.5,1.5-1.5c0.799,0,1.5,0.7,1.5,1.5C16.701,3.963,16.102,4.664,15.201,4.664"
	/>
<path fill="#FFFFFF" d="M16.801,11.964c-1.1,0-2,0.899-2,2.1s0.9,2.101,2,2.101s2-0.9,2-2.101S17.9,11.964,16.801,11.964
	 M16.801,15.264c-0.699,0-1.301-0.6-1.301-1.3s0.602-1.3,1.301-1.3s1.301,0.6,1.301,1.3S17.5,15.264,16.801,15.264"/>
<path fill="#FFFFFF" d="M2.201,7.364c-1.1,0-2,0.9-2,2.1s0.9,2.1,2,2.1s2-0.899,2-2.1S3.301,7.364,2.201,7.364 M2.201,10.764
	c-0.7,0-1.2-0.6-1.2-1.3c0-0.8,0.5-1.4,1.2-1.4s1.3,0.6,1.3,1.3C3.5,10.164,3,10.764,2.201,10.764"/>
<path fill="#FFFFFF" d="M10.301,4.063c-1.5,0-2.6,1.2-2.6,2.7s1.2,2.7,2.6,2.7c1.4,0,2.6-1.2,2.6-2.7S11.701,4.063,10.301,4.063
	 M10.301,8.264c-0.8,0-1.5-0.7-1.5-1.5c0-0.9,0.7-1.5,1.5-1.5c0.801,0,1.5,0.7,1.5,1.5S11.201,8.264,10.301,8.264"/>
</svg>
