<?xml version="1.0" encoding="utf-8"?>
<!-- Generator: Adobe Illustrator 13.0.0, SVG Export Plug-In . SVG Version: 6.00 Build 14948)  -->
<!DOCTYPE svg PUBLIC "-//W3C//DTD SVG 1.1//EN" "http://www.w3.org/Graphics/SVG/1.1/DTD/svg11.dtd">
<svg version="1.1" id="Layer_1" xmlns="http://www.w3.org/2000/svg" xmlns:xlink="http://www.w3.org/1999/xlink" x="0px" y="0px"
	 width="19px" height="19px" viewBox="0 0 19 19" enable-background="new 0 0 19 19" xml:space="preserve">
<path fill="#A1A1A1" d="M-842.336-324.416v19.02h9.338l4.633-4.228v-14.792H-842.336z M-829.294-309.828l-4.016,3.387h-8.01v-16.952
	h12.026V-309.828z"/>
<rect x="-840.322" y="-320.427" fill-rule="evenodd" clip-rule="evenodd" fill="#A1A1A1" width="10.004" height="1.046"/>
<rect x="-840.322" y="-317.439" fill-rule="evenodd" clip-rule="evenodd" fill="#A1A1A1" width="9.999" height="1.046"/>
<rect x="-840.322" y="-314.417" fill="#A1A1A1" width="5.995" height="0.984"/>
<polygon fill="#A1A1A1" points="-833.328,-310.427 -833.328,-305.365 -832.328,-306.375 -832.328,-310.427 "/>
<polygon fill-rule="evenodd" clip-rule="evenodd" fill="#A1A1A1" points="-833.344,-310.443 -833.344,-309.412 -829.14,-309.412 
	-828.406,-310.443 "/>
<g>
	<defs>
		<rect id="SVGID_1_" x="-950" y="-530" width="1920" height="1080"/>
	</defs>
	<clipPath id="SVGID_2_">
		<use xlink:href="#SVGID_1_"  overflow="visible"/>
	</clipPath>
	<path clip-path="url(#SVGID_2_)" fill="#A1A1A1" d="M-838.241-311.428c-1.149,0-2.081,0.933-2.081,2.081
		c0,1.149,0.932,2.081,2.081,2.081c1.149,0,2.081-0.932,2.081-2.081C-836.16-310.496-837.091-311.428-838.241-311.428
		 M-838.271-308.292c-0.6,0-1.086-0.485-1.086-1.085c0-0.601,0.486-1.086,1.086-1.086s1.086,0.485,1.086,1.086
		C-837.185-308.777-837.671-308.292-838.271-308.292"/>
</g>
<path fill="#A1A1A1" d="M-849.336-310.416v19.02h9.338l4.633-4.228v-14.792H-849.336z M-836.294-295.828l-4.016,3.387h-8.01v-16.952
	h12.026V-295.828z"/>
<rect x="-847.322" y="-306.427" fill-rule="evenodd" clip-rule="evenodd" fill="#A1A1A1" width="10.004" height="1.046"/>
<rect x="-847.322" y="-303.439" fill-rule="evenodd" clip-rule="evenodd" fill="#A1A1A1" width="9.999" height="1.046"/>
<rect x="-847.322" y="-300.417" fill="#A1A1A1" width="5.995" height="0.984"/>
<polygon fill="#A1A1A1" points="-840.328,-296.427 -840.328,-291.365 -839.328,-292.375 -839.328,-296.427 "/>
<polygon fill-rule="evenodd" clip-rule="evenodd" fill="#A1A1A1" points="-840.344,-296.443 -840.344,-295.412 -836.14,-295.412 
	-835.406,-296.443 "/>
<g>
	<defs>
		<rect id="SVGID_3_" x="-957" y="-516" width="1920" height="1080"/>
	</defs>
	<clipPath id="SVGID_4_">
		<use xlink:href="#SVGID_3_"  overflow="visible"/>
	</clipPath>
	<path clip-path="url(#SVGID_4_)" fill="#A1A1A1" d="M-845.241-297.428c-1.149,0-2.081,0.933-2.081,2.081
		c0,1.149,0.932,2.081,2.081,2.081c1.149,0,2.081-0.932,2.081-2.081C-843.16-296.496-844.091-297.428-845.241-297.428
		 M-845.271-294.292c-0.6,0-1.086-0.485-1.086-1.085c0-0.601,0.486-1.086,1.086-1.086s1.086,0.485,1.086,1.086
		C-844.185-294.777-844.671-294.292-845.271-294.292"/>
</g>
<path fill="#A1A1A1" d="M2.664,0.084v19.02h9.338l4.633-4.228V0.084H2.664z M15.706,14.672l-4.017,3.387H3.68V1.107h12.026V14.672z"
	/>
<rect x="4.678" y="4.073" fill-rule="evenodd" clip-rule="evenodd" fill="#A1A1A1" width="10.003" height="1.046"/>
<rect x="4.678" y="7.061" fill-rule="evenodd" clip-rule="evenodd" fill="#A1A1A1" width="9.999" height="1.047"/>
<rect x="4.678" y="10.083" fill="#A1A1A1" width="5.995" height="0.983"/>
<polygon fill="#A1A1A1" points="11.672,14.073 11.672,19.135 12.672,18.125 12.672,14.073 "/>
<polygon fill-rule="evenodd" clip-rule="evenodd" fill="#A1A1A1" points="11.656,14.057 11.656,15.088 15.859,15.088 16.594,14.057 
	"/>
<path fill="#A1A1A1" d="M6.759,13.072c-1.149,0-2.081,0.933-2.081,2.081c0,1.149,0.932,2.081,2.081,2.081
	c1.149,0,2.081-0.932,2.081-2.081S7.909,13.072,6.759,13.072 M6.729,16.208c-0.6,0-1.086-0.485-1.086-1.085
	c0-0.602,0.486-1.086,1.086-1.086s1.086,0.484,1.086,1.086C7.815,15.723,7.329,16.208,6.729,16.208"/>
</svg>
