<?xml version="1.0" encoding="utf-8"?>
<!-- Generator: Adobe Illustrator 13.0.0, SVG Export Plug-In . SVG Version: 6.00 Build 14948)  -->
<!DOCTYPE svg PUBLIC "-//W3C//DTD SVG 1.1//EN" "http://www.w3.org/Graphics/SVG/1.1/DTD/svg11.dtd">
<svg version="1.1" id="Layer_1" xmlns="http://www.w3.org/2000/svg" xmlns:xlink="http://www.w3.org/1999/xlink" x="0px" y="0px"
	 width="19px" height="19px" viewBox="0 0 19 19" enable-background="new 0 0 19 19" xml:space="preserve">
<path fill="#A1A1A1" d="M3.775,11.021c-1.148,0-2.083-0.936-2.083-2.083c0-1.149,0.935-2.083,2.083-2.083
	c1.149,0,2.083,0.935,2.083,2.083C5.859,10.085,4.925,11.021,3.775,11.021 M3.775,7.592c-0.741,0-1.345,0.604-1.345,1.345
	c0,0.741,0.604,1.346,1.345,1.346c0.742,0,1.345-0.605,1.345-1.346C5.121,8.195,4.517,7.592,3.775,7.592"/>
<path fill="#A1A1A1" d="M15.411,10.898c-1.148,0-2.083-0.934-2.083-2.083c0-1.149,0.935-2.084,2.083-2.084
	c1.149,0,2.084,0.935,2.084,2.084C17.495,9.964,16.561,10.898,15.411,10.898 M15.411,7.469c-0.741,0-1.345,0.604-1.345,1.346
	c0,0.741,0.604,1.344,1.345,1.344c0.742,0,1.346-0.603,1.346-1.344C16.757,8.074,16.153,7.469,15.411,7.469"/>
<path fill="#A1A1A1" d="M9.565,11.563c-1.986,0-3.603-1.616-3.603-3.604c0-1.986,1.617-3.603,3.603-3.603
	c1.988,0,3.602,1.617,3.602,3.603C13.167,9.947,11.553,11.563,9.565,11.563 M9.565,5.34c-1.443,0-2.618,1.176-2.618,2.619
	c0,1.444,1.175,2.618,2.618,2.618c1.442,0,2.618-1.174,2.618-2.618C12.183,6.516,11.007,5.34,9.565,5.34"/>
<path fill-rule="evenodd" clip-rule="evenodd" fill="#A1A1A1" d="M1.603,11.944l0.175,1.185c0,0,2.064-2.029,4.103-0.289
	l0.598-0.646C6.48,12.193,4.354,10.061,1.603,11.944"/>
<path fill-rule="evenodd" clip-rule="evenodd" fill="#A1A1A1" d="M12.38,12.195l0.621,0.677c2.132-1.822,4.29,0.3,4.29,0.3
	l0.182-1.236C14.599,9.965,12.378,12.195,12.38,12.195"/>
<path fill-rule="evenodd" clip-rule="evenodd" fill="#A1A1A1" d="M9.479,11.348c0,0-3.832-0.198-5.772,4.13l0.617,0.583
	c0,0,1.274-3.975,5.155-3.875c0,0,3.508-0.292,5.002,3.988l0.671-0.398C15.151,15.775,14.156,11.547,9.479,11.348"/>
<path fill="#A1A1A1" d="M9.503,0.152c-5.179,0-9.378,4.199-9.378,9.38c0,5.18,4.199,9.378,9.378,9.378
	c5.18,0,9.379-4.199,9.379-9.378C18.882,4.353,14.683,0.152,9.503,0.152 M9.503,17.78c-4.556,0-8.249-3.693-8.249-8.249
	c0-4.556,3.693-8.25,8.249-8.25s8.249,3.693,8.249,8.25C17.752,14.087,14.059,17.78,9.503,17.78"/>
</svg>
