<?xml version="1.0" encoding="utf-8"?>
<!-- Generator: Adobe Illustrator 13.0.0, SVG Export Plug-In . SVG Version: 6.00 Build 14948)  -->
<!DOCTYPE svg PUBLIC "-//W3C//DTD SVG 1.1//EN" "http://www.w3.org/Graphics/SVG/1.1/DTD/svg11.dtd">
<svg version="1.1" id="Layer_1" xmlns="http://www.w3.org/2000/svg" xmlns:xlink="http://www.w3.org/1999/xlink" x="0px" y="0px"
	 width="19px" height="19px" viewBox="0 0 19 19" enable-background="new 0 0 19 19" xml:space="preserve">
<path fill="#A1A1A1" d="M16.65,3.47H2.45c-0.4,0-0.6,0.3-0.6,0.7v10.9c0,0.399,0.3,0.699,0.7,0.699h14.2c0.4,0,0.7-0.8,0.7-1.199
	V4.17C17.25,3.77,17.05,3.47,16.65,3.47 M16.45,14.97H2.55V4.37h13.9V14.97z"/>
<path fill="#A1A1A1" d="M3.45,8.47h4.9v-3.3h-4.9V8.47z M7.55,7.67h-3.3v-1.7h3.3V7.67z"/>
<rect x="3.45" y="10.07" fill="#A1A1A1" width="11.399" height="0.8"/>
<rect x="3.45" y="12.471" fill="#A1A1A1" width="5.7" height="0.799"/>
</svg>
