<?xml version="1.0" encoding="utf-8"?>
<!-- Generator: Adobe Illustrator 13.0.0, SVG Export Plug-In . SVG Version: 6.00 Build 14948)  -->
<!DOCTYPE svg PUBLIC "-//W3C//DTD SVG 1.1//EN" "http://www.w3.org/Graphics/SVG/1.1/DTD/svg11.dtd">
<svg version="1.1" xmlns="http://www.w3.org/2000/svg" xmlns:xlink="http://www.w3.org/1999/xlink" x="0px" y="0px" width="19px"
	 height="19px" viewBox="0 0 19 19" enable-background="new 0 0 19 19" xml:space="preserve">
<g id="Layer_0_xA0_Image_1_">
</g>
<g id="Shape_1_1_" enable-background="new    ">
	<g id="Shape_1">
		<g>
			<path fill="#FFFFFF" d="M3.518,0.423c-1.388,0-2.513,1.089-2.513,2.433c0,1.344,1.125,2.433,2.513,2.433
				c1.388,0,2.513-1.089,2.513-2.433C6.031,1.512,4.906,0.423,3.518,0.423z M3.598,4.446c-0.898,0-1.627-0.705-1.627-1.575
				s0.729-1.575,1.627-1.575s1.627,0.705,1.627,1.575S4.496,4.446,3.598,4.446z"/>
		</g>
	</g>
</g>
<g id="Shape_1_copy_1_" enable-background="new    ">
	<g id="Shape_1_copy">
		<g>
			<path fill="#FFFFFF" d="M16.595,0.422c-1.175,0-2.126,0.922-2.126,2.06S15.42,4.54,16.595,4.54c1.176,0,2.127-0.921,2.127-2.058
				S17.771,0.422,16.595,0.422z M16.662,3.827c-0.761,0-1.376-0.597-1.376-1.333c0-0.735,0.615-1.332,1.376-1.332
				s1.378,0.597,1.378,1.332C18.04,3.23,17.423,3.827,16.662,3.827z"/>
		</g>
	</g>
</g>
<g id="Shape_1_copy_2_1_" enable-background="new    ">
	<g id="Shape_1_copy_2">
		<g>
			<path fill="#FFFFFF" d="M16.595,7.148c-1.175,0-2.126,0.922-2.126,2.059c0,1.138,0.951,2.059,2.126,2.059
				c1.176,0,2.127-0.921,2.127-2.059C18.722,8.07,17.771,7.148,16.595,7.148z M16.662,10.553c-0.761,0-1.376-0.597-1.376-1.332
				c0-0.736,0.615-1.333,1.376-1.333s1.378,0.597,1.378,1.333C18.04,9.956,17.423,10.553,16.662,10.553z"/>
		</g>
	</g>
</g>
<g id="Shape_1_copy_3_1_" enable-background="new    ">
	<g id="Shape_1_copy_3">
		<g>
			<path fill="#FFFFFF" d="M16.595,14.294c-1.175,0-2.126,0.923-2.126,2.06c0,1.138,0.951,2.059,2.126,2.059
				c1.176,0,2.127-0.921,2.127-2.059C18.722,15.217,17.771,14.294,16.595,14.294z M16.662,17.7c-0.761,0-1.376-0.598-1.376-1.334
				c0-0.735,0.615-1.332,1.376-1.332s1.378,0.597,1.378,1.332C18.04,17.103,17.423,17.7,16.662,17.7z"/>
		</g>
	</g>
</g>
<g id="Shape_2_1_" enable-background="new    ">
	<g id="Shape_2">
		<g>
			<polygon fill="#FFFFFF" points="13.593,9.717 13.593,9.031 11.564,9.031 11.564,2.856 13.528,2.856 13.528,2.294 11.564,2.294 
				10.985,2.294 10.953,2.294 10.953,9.031 8.828,9.031 8.828,9.717 10.953,9.717 10.953,15.705 10.953,16.486 11.564,16.486 
				13.528,16.486 13.528,15.705 11.564,15.705 11.564,9.717 			"/>
		</g>
	</g>
</g>
<g id="Shape_3_1_" enable-background="new    ">
	<g id="Shape_3">
		<g>
			<path fill="#FFFFFF" d="M4.944,6.052L2.338,6c0,0-2.063-0.21-2.171,2.208v4.099c0,0,0.163,1.208,1.276,1.208v3.494
				c0,0-0.136,1.104,0.896,1.208h2.416c0,0,1.112,0.079,1.112-1.261v-3.311c0,0,1.194,0.053,1.331-1.313V8.26
				C7.197,8.26,7.17,6.079,4.944,6.052z M6.22,12.253c0,0-0.095,1.127-1.235,1.021L4.971,16.93c0,0,0,0.525-0.407,0.474h-2.09
				c0,0-0.462-0.026-0.353-0.657v-3.678c0,0-1.004,0.157-1.059-0.789l-0.027-4.23c0,0-0.108-0.945,0.977-1.181h3.149
				c0,0,0.978-0.08,1.059,1.155V12.253z"/>
		</g>
	</g>
</g>
</svg>
