<?xml version="1.0" encoding="utf-8"?>
<!-- Generator: Adobe Illustrator 13.0.0, SVG Export Plug-In . SVG Version: 6.00 Build 14948)  -->
<!DOCTYPE svg PUBLIC "-//W3C//DTD SVG 1.1//EN" "http://www.w3.org/Graphics/SVG/1.1/DTD/svg11.dtd">
<svg version="1.1" id="Layer_1" xmlns="http://www.w3.org/2000/svg" xmlns:xlink="http://www.w3.org/1999/xlink" x="0px" y="0px"
	 width="19px" height="19px" viewBox="0 0 19 19" enable-background="new 0 0 19 19" xml:space="preserve">
<path fill="#FFFFFF" d="M15.75,2.4c-0.9,0-1.7,0.7-1.7,1.7s0.8,1.7,1.7,1.7c0.899,0,1.699-0.7,1.699-1.7S16.649,2.4,15.75,2.4
	 M15.75,5c-0.5,0-0.9-0.4-0.9-0.9s0.4-0.8,0.9-0.8s0.899,0.4,0.899,0.9S16.25,5,15.75,5"/>
<path fill="#FFFFFF" d="M15.75,7.9c-0.9,0-1.7,0.7-1.7,1.7s0.8,1.7,1.7,1.7c0.899,0,1.699-0.7,1.699-1.7S16.649,7.9,15.75,7.9
	 M15.75,10.4c-0.5,0-0.801-0.4-0.801-0.801c0-0.5,0.4-0.8,0.801-0.8c0.5,0,0.8,0.4,0.8,0.8C16.649,10,16.25,10.4,15.75,10.4"/>
<path fill="#FFFFFF" d="M15.75,13.6c-0.9,0-1.7,0.7-1.7,1.7c0,0.899,0.8,1.7,1.7,1.7c0.899,0,1.699-0.7,1.699-1.7
	S16.649,13.6,15.75,13.6 M15.75,16.199c-0.5,0-0.9-0.399-0.9-0.799c0-0.4,0.4-0.801,0.9-0.801s0.899,0.4,0.899,0.801
	C16.649,15.8,16.25,16.199,15.75,16.199"/>
<polygon fill="#FFFFFF" points="13.05,5 13.05,4.1 11.35,4.1 11.35,9.3 9.55,9.3 9.55,10.199 11.35,10.199 11.35,15.4 13.05,15.4 
	13.05,14.5 12.149,14.5 12.149,10.199 13.05,10.199 13.05,9.3 12.149,9.3 12.149,5 "/>
<path fill="#FFFFFF" d="M5.35,2.1c-1.3,0-2.3,1-2.3,2.2c0,1.2,1,2.2,2.3,2.2s2.3-1,2.3-2.2C7.649,3.1,6.649,2.1,5.35,2.1 M5.35,5.6
	c-0.7,0-1.3-0.6-1.3-1.3c0-0.7,0.6-1.3,1.3-1.3s1.3,0.6,1.3,1.3C6.649,5,6.05,5.6,5.35,5.6"/>
<path fill="#FFFFFF" d="M6.85,6.7h-3.1c0,0-1.8,0.1-1.9,2.1v3.3c0,0,0,1,0.9,1v3.2c0,0,0.2,0.899,1,1h3.1c0,0,0.9,0.101,0.9-1v-3
	c0,0,0.9,0,0.9-0.8V8.8C8.75,8.8,8.649,6.7,6.85,6.7 M7.55,12c0,0,0.1,0.8-1,0.699V15.8c0,0,0,0.5-0.4,0.399h-1.9c0,0-0.4,0-0.3-0.6
	v-2.9c0,0-0.9,0.101-1-0.699V9.1c0,0-0.1-0.9,0.9-1.2h0.5h1.9h0.3c0,0,0.9,0,1,1.1V12z"/>
</svg>
