<?xml version="1.0" encoding="utf-8"?>
<!-- Generator: Adobe Illustrator 13.0.0, SVG Export Plug-In . SVG Version: 6.00 Build 14948)  -->
<!DOCTYPE svg PUBLIC "-//W3C//DTD SVG 1.1//EN" "http://www.w3.org/Graphics/SVG/1.1/DTD/svg11.dtd">
<svg version="1.1" id="Layer_1" xmlns="http://www.w3.org/2000/svg" xmlns:xlink="http://www.w3.org/1999/xlink" x="0px" y="0px"
	 width="19px" height="19px" viewBox="0 0 19 19" enable-background="new 0 0 19 19" xml:space="preserve">
<path fill="#FFFFFF" d="M16.42,15.926V1.173h0.035V0.2H16.42V0.132h-0.94V0.2h-3.957v3.935h-7.86V4.102H2.691v11.824H1.727v2.991
	h15.707v-2.991H16.42z M3.662,5.125h7.86V5.16h0.967V5.125h0.002v-0.99h-0.002V1.173h2.99v14.752h-3.961v-2.911l-0.801-0.788
	l-0.186-0.189H5.686v-0.033l-0.341,0.323L4.616,13H4.65v2.927H3.662V5.125z M10.553,13v2.926H5.661L5.68,13H10.553z M16.455,17.928
	H2.683v-1.015h13.772V17.928z"/>
<path fill="#FFFFFF" d="M8.288,6.926c-1.007,0-1.824,0.835-1.824,1.864c0,1.029,0.816,1.862,1.824,1.862s1.824-0.835,1.824-1.862
	C10.111,7.76,9.295,6.926,8.288,6.926 M8.268,10.063c-0.667,0-1.208-0.553-1.208-1.235c0-0.682,0.541-1.235,1.208-1.235
	c0.667,0,1.208,0.553,1.208,1.235C9.477,9.511,8.936,10.063,8.268,10.063"/>
</svg>
