<?xml version="1.0" encoding="utf-8"?>
<!-- Generator: Adobe Illustrator 13.0.0, SVG Export Plug-In . SVG Version: 6.00 Build 14948)  -->
<!DOCTYPE svg PUBLIC "-//W3C//DTD SVG 1.1//EN" "http://www.w3.org/Graphics/SVG/1.1/DTD/svg11.dtd">
<svg version="1.1" id="Layer_1" xmlns="http://www.w3.org/2000/svg" xmlns:xlink="http://www.w3.org/1999/xlink" x="0px" y="0px"
	 width="19px" height="19px" viewBox="0 0 19 19" enable-background="new 0 0 19 19" xml:space="preserve">
<path fill="#FFFFFF" d="M2.15,5.065h8.3v-0.9h-8.3V5.065z M13.25,5.065h3.9v-0.9h-3.9V5.065z"/>
<path fill="#FFFFFF" d="M13.25,13.865h3.9v-0.9h-3.9V13.865z M2.15,13.865h8.3v-0.9h-8.3V13.865z"/>
<path fill="#FFFFFF" d="M2.15,9.465h4.7v-0.8h-4.7V9.465z M9.65,9.565h7.5v-0.9h-7.5V9.565z"/>
<path fill="#FFFFFF" d="M11.949,2.765c-1,0-1.899,0.8-1.899,1.8s0.8,1.8,1.899,1.8c1,0,1.9-0.8,1.9-1.8S12.949,2.765,11.949,2.765
	 M11.949,5.665c-0.6,0-1.1-0.5-1.1-1.1c0-0.6,0.5-1,1.1-1c0.601,0,1.101,0.5,1.101,1.1S12.55,5.665,11.949,5.665"/>
<path fill="#FFFFFF" d="M8.05,7.265c-1.1,0-1.9,0.8-1.9,1.8s0.8,1.801,1.9,1.801c1.1,0,1.9-0.801,1.9-1.801S9.05,7.265,8.05,7.265
	 M8.05,10.164c-0.6,0-1.1-0.5-1.1-1.1c0-0.6,0.5-1.1,1.1-1.1c0.6,0,1.1,0.5,1.1,1.1C9.149,9.665,8.649,10.164,8.05,10.164"/>
<path fill="#FFFFFF" d="M11.949,11.664c-1,0-1.899,0.801-1.899,1.801s0.8,1.8,1.899,1.8c1,0,1.9-0.8,1.9-1.8
	S12.949,11.664,11.949,11.664 M11.949,14.564c-0.6,0-1.1-0.5-1.1-1.1s0.5-1.1,1.1-1.1c0.601,0,1.101,0.5,1.101,1.1
	S12.55,14.564,11.949,14.564"/>
</svg>
