<?xml version="1.0" encoding="utf-8"?>
<!-- Generator: Adobe Illustrator 13.0.0, SVG Export Plug-In . SVG Version: 6.00 Build 14948)  -->
<!DOCTYPE svg PUBLIC "-//W3C//DTD SVG 1.1//EN" "http://www.w3.org/Graphics/SVG/1.1/DTD/svg11.dtd">
<svg version="1.1" id="Layer_1" xmlns="http://www.w3.org/2000/svg" xmlns:xlink="http://www.w3.org/1999/xlink" x="0px" y="0px"
	 width="19px" height="19px" viewBox="0 0 19 19" enable-background="new 0 0 19 19" xml:space="preserve">
<path fill="#A1A1A1" d="M16.05,2.007H3.25c-0.5,0-0.9,0.4-0.9,0.9v12.8c0,0.5,0.4,0.9,0.9,0.9h12.8c0.5,0,0.899-0.4,0.899-0.9v-12.7
	C16.949,2.407,16.55,2.007,16.05,2.007 M16.55,15.807c0,0.301-0.2,0.5-0.5,0.5H3.25c-0.3,0-0.5-0.199-0.5-0.5v-11.2h13.8V15.807z
	 M16.55,4.207H2.75v-1.2c0-0.3,0.2-0.5,0.5-0.5h12.8c0.3,0,0.5,0.2,0.5,0.5V4.207z"/>
<path fill="#A1A1A1" d="M16.05,16.906H3.25c-0.6,0-1.1-0.5-1.1-1.1v-12.8c0-0.6,0.5-1.1,1.1-1.1h12.8c0.6,0,1.1,0.5,1.1,1.1v12.8
	C17.149,16.406,16.649,16.906,16.05,16.906 M3.25,2.207c-0.4,0-0.7,0.3-0.7,0.7v12.8c0,0.399,0.3,0.699,0.7,0.699h12.8
	c0.399,0,0.7-0.3,0.7-0.699v-12.7c0-0.4-0.301-0.7-0.7-0.7L3.25,2.207z M16.05,16.507H3.25c-0.4,0-0.7-0.3-0.7-0.7v-11.4h14.2v11.4
	C16.75,16.207,16.449,16.507,16.05,16.507 M2.85,4.807v11c0,0.2,0.1,0.3,0.3,0.3h12.8c0.2,0,0.301-0.1,0.301-0.3v-11H2.85z
	 M16.75,4.307H2.55v-1.3c0-0.4,0.3-0.7,0.7-0.7h12.8c0.399,0,0.7,0.3,0.7,0.7V4.307z M2.85,4.007h13.5v-1c0-0.2-0.1-0.3-0.3-0.3
	H3.25c-0.3,0-0.4,0-0.4,0.3V4.007z"/>
<polygon fill="#A1A1A1" points="7.85,12.007 5.05,10.606 7.85,9.207 7.85,8.807 4.55,10.406 4.55,10.807 7.85,12.507 "/>
<path fill="#A1A1A1" d="M8.05,12.807l-3.6-1.9v-0.6l3.6-1.9v0.9l-2.6,1.301l2.6,1.299V12.807z M4.75,10.707l2.9,1.5v-0.1
	L4.75,10.707l0.1-0.2l0.1-0.101l2.7-1.299v-0.1l-2.9,1.601V10.707z"/>
<polygon fill="#A1A1A1" points="11.149,7.707 10.649,7.707 8.75,12.807 9.149,12.807 "/>
<path fill="#A1A1A1" d="M9.35,13.007h-0.9l2.1-5.5h0.899L9.35,13.007z M8.95,12.606L8.95,12.606l1.9-4.8L8.95,12.606z"/>
<polygon fill="#A1A1A1" points="14.85,10.406 11.649,8.807 11.649,9.207 14.449,10.606 11.649,12.007 11.649,12.507 14.85,10.807 
	"/>
<path fill="#A1A1A1" d="M11.449,12.807v-0.9l2.601-1.3l-2.601-1.3v-0.8l3.601,1.899v0.601L11.449,12.807z M11.75,12.106
	L11.75,12.106l2.899-1.399v-0.2l-2.899-1.5v0.1l2.8,1.4v0.2l-0.101,0.1L11.75,12.106z"/>
</svg>
