<?xml version="1.0" encoding="utf-8"?>
<!-- Generator: Adobe Illustrator 13.0.0, SVG Export Plug-In . SVG Version: 6.00 Build 14948)  -->
<!DOCTYPE svg PUBLIC "-//W3C//DTD SVG 1.1//EN" "http://www.w3.org/Graphics/SVG/1.1/DTD/svg11.dtd">
<svg version="1.1" id="Layer_1" xmlns="http://www.w3.org/2000/svg" xmlns:xlink="http://www.w3.org/1999/xlink" x="0px" y="0px"
	 width="19px" height="19px" viewBox="0 0 19 19" enable-background="new 0 0 19 19" xml:space="preserve">
<path fill-rule="evenodd" clip-rule="evenodd" fill="#A1A1A1" d="M11.191,1.483h-4.6c0,0-0.8,0.1-0.9,1.2v1.5h0.9v-1.2
	c0,0,0.4-0.7,0.7-0.7h3.3c0,0,0.6,0.1,0.6,0.8v1h0.9v-1.2C11.991,2.883,11.991,1.583,11.191,1.483"/>
<path fill="#A1A1A1" d="M12.592,16.783h-8c-1.4,0-2.6-1.2-2.6-2.601v-4.6h5.5v-0.9h-5.4v-0.3c0-1.4,1.2-2.5,2.6-2.5h8
	c1.4,0,3,1,3,2.5v0.3h-5.5v0.9h5.4v0.5h0.899v-2.4c0-1.4-1.6-2.6-3-2.6H4.092c-1.4,0-2.9,1.2-2.9,2.6v7.2c0,1.4,1.5,2.8,2.9,2.8h8.5
	V16.783z"/>
<path fill="#A1A1A1" d="M9.792,6.883h-1.2c-0.6,0-1.1,0.5-1.1,1.1v3.1c0,0.6,0.5,1.1,1.1,1.1h1.2c0.6,0,1.3-0.5,1.3-1.1v-3.1
	C11.092,7.383,10.392,6.883,9.792,6.883 M10.191,10.982c0,0.2-0.2,0.4-0.4,0.4h-1c-0.2,0-0.4-0.2-0.4-0.4V8.083
	c0-0.2,0.2-0.4,0.4-0.4h1.1c0.2,0.1,0.3,0.2,0.3,0.4V10.982z"/>
<path fill="#A1A1A1" d="M15.592,10.683c-0.9,0-1.601,0.7-1.601,1.7c0,0.9,0.7,1.7,1.601,1.7c0.899,0,1.6-0.7,1.6-1.7
	C17.292,11.482,16.491,10.683,15.592,10.683 M15.592,13.383c-0.5,0-1-0.5-1-1c0-0.6,0.399-1,1-1c0.5,0,1,0.5,1,1
	S16.191,13.383,15.592,13.383"/>
<path fill="#A1A1A1" d="M15.592,14.482c-1.4,0-2.601,1.2-2.601,2.601v0.3h0.7v-0.2c0-1.1,0.9-2,2-2c1.101,0,2,0.9,2,2v0.2h0.5v-0.3
	C18.191,15.583,17.092,14.482,15.592,14.482"/>
</svg>
