<?xml version="1.0" encoding="utf-8"?>
<!-- Generator: Adobe Illustrator 13.0.0, SVG Export Plug-In . SVG Version: 6.00 Build 14948)  -->
<!DOCTYPE svg PUBLIC "-//W3C//DTD SVG 1.1//EN" "http://www.w3.org/Graphics/SVG/1.1/DTD/svg11.dtd">
<svg version="1.1" id="Layer_1" xmlns="http://www.w3.org/2000/svg" xmlns:xlink="http://www.w3.org/1999/xlink" x="0px" y="0px"
	 width="19px" height="19px" viewBox="0 0 19 19" enable-background="new 0 0 19 19" xml:space="preserve">
<path fill="#A1A1A1" d="M9.545,0.075c-5.143,0-9.396,4.253-9.396,9.495s4.253,9.396,9.396,9.396c5.143,0,9.396-4.253,9.396-9.396
	C18.941,4.426,14.787,0.075,9.545,0.075 M9.645,17.681c-4.451,0-8.11-3.66-8.11-8.111s3.659-8.11,8.11-8.11
	c4.451,0,8.11,3.66,8.11,8.11S14.194,17.681,9.645,17.681"/>
<path fill="#A1A1A1" d="M9.545,4.031c-1.385,0-2.571,1.088-2.571,2.572s1.187,2.473,2.571,2.473c1.385,0,2.572-1.187,2.572-2.572
	C12.117,5.119,10.931,4.031,9.545,4.031 M9.545,7.987c-0.791,0-1.483-0.692-1.483-1.484c0-0.791,0.692-1.483,1.483-1.483
	c0.792,0,1.484,0.692,1.484,1.483C11.029,7.295,10.337,7.987,9.545,7.987"/>
<path fill="#A1A1A1" d="M12.414,9.669h-5.44c0,0-1.583-0.099-1.879,1.484v2.472h8.901v-2.571
	C13.996,11.054,13.996,9.866,12.414,9.669 M13.007,12.637H6.084v-1.188c0.099-0.79,0.989-0.691,0.989-0.691h4.946
	c0.692,0,1.088,1.088,1.088,1.088v0.792H13.007z"/>
</svg>
