<?xml version="1.0" encoding="utf-8"?>
<!-- Generator: Adobe Illustrator 13.0.0, SVG Export Plug-In . SVG Version: 6.00 Build 14948)  -->
<!DOCTYPE svg PUBLIC "-//W3C//DTD SVG 1.1//EN" "http://www.w3.org/Graphics/SVG/1.1/DTD/svg11.dtd">
<svg version="1.1" xmlns="http://www.w3.org/2000/svg" xmlns:xlink="http://www.w3.org/1999/xlink" x="0px" y="0px" width="19px"
	 height="19px" viewBox="0 0 19 19" enable-background="new 0 0 19 19" xml:space="preserve">
<g id="Shape_3_1_" enable-background="new    ">
	<g id="Shape_3">
		<g>
			<path fill="#A1A1A1" d="M12.626,9.811H8.073c0,0-1.457,0.124-1.821,1.738v2.359h7.952v-2.483
				C14.204,11.425,14.204,10.059,12.626,9.811z M13.219,13.166H7.276v-1.395c0.051-0.774,1.062-1.084,1.062-1.084h3.819
				c0.708,0,1.062,1.084,1.062,1.084V13.166z"/>
		</g>
	</g>
</g>
<g id="Shape_1_1_" enable-background="new    ">
	<g id="Shape_1">
		<g>
			<path fill="#9E9E9E" d="M3.011,7.832C3.694,4.275,6.76,1.59,10.441,1.59c1.164,0,2.262,0.276,3.247,0.755
				c0.093-0.281,0.251-0.528,0.461-0.723C12.986,1.018,11.675,0.67,10.28,0.67c-4.141,0-7.595,3.005-8.389,6.997
				c0.116-0.029,0.236-0.049,0.361-0.049C2.53,7.617,2.787,7.699,3.011,7.832z M16.746,3.696c-0.13,0.248-0.313,0.463-0.541,0.619
				c1.128,1.352,1.813,3.101,1.813,5.016c0,1.062-0.21,2.073-0.589,2.994c0.067-0.006,0.139-0.018,0.198-0.018
				c0.393,0,0.536,0.153,0.583,0.398c0.403-1.016,0.631-2.125,0.631-3.289C18.841,7.227,18.048,5.23,16.746,3.696z M10.441,17.07
				c-3.786,0-6.914-2.84-7.476-6.548c-0.213,0.117-0.454,0.189-0.712,0.189c-0.154,0-0.3-0.03-0.44-0.074
				c0.583,4.251,4.146,7.525,8.467,7.525c2.429,0,4.616-1.038,6.174-2.697c-0.35-0.04-0.666-0.192-0.906-0.43
				C14.2,16.296,12.412,17.07,10.441,17.07z"/>
		</g>
	</g>
</g>
<g id="Shape_2_1_" enable-background="new    ">
	<g id="Shape_2">
		<g>
			<path fill="#A1A1A1" d="M15.233,0.419c-1.313,0-2.376,1.086-2.376,2.427s1.063,2.428,2.376,2.428s2.376-1.087,2.376-2.428
				S16.546,0.419,15.233,0.419z M15.274,4.353c-0.837,0-1.516-0.693-1.516-1.549c0-0.854,0.679-1.548,1.516-1.548
				s1.516,0.693,1.516,1.548C16.79,3.659,16.111,4.353,15.274,4.353z"/>
		</g>
	</g>
</g>
<g id="Shape_2_copy_1_" enable-background="new    ">
	<g id="Shape_2_copy">
		<g>
			<path fill="#A1A1A1" d="M16.794,11.653c-1.12,0-2.028,0.928-2.028,2.072s0.908,2.072,2.028,2.072s2.028-0.928,2.028-2.072
				S17.914,11.653,16.794,11.653z M16.828,15.012c-0.714,0-1.293-0.592-1.293-1.321c0-0.73,0.579-1.322,1.293-1.322
				c0.715,0,1.294,0.592,1.294,1.322C18.122,14.42,17.543,15.012,16.828,15.012z"/>
		</g>
	</g>
</g>
<g id="Shape_2_copy_2_1_" enable-background="new    ">
	<g id="Shape_2_copy_2">
		<g>
			<path fill="#A1A1A1" d="M2.241,7.11c-1.12,0-2.028,0.928-2.028,2.072s0.908,2.072,2.028,2.072s2.028-0.928,2.028-2.072
				S3.361,7.11,2.241,7.11z M2.275,10.469c-0.714,0-1.294-0.592-1.294-1.322c0-0.729,0.58-1.322,1.294-1.322
				s1.294,0.593,1.294,1.322C3.569,9.877,2.99,10.469,2.275,10.469z"/>
		</g>
	</g>
</g>
<g id="Shape_2_copy_3_1_" enable-background="new    ">
	<g id="Shape_2_copy_3">
		<g>
			<path fill="#A1A1A1" d="M10.311,3.806c-1.436,0-2.599,1.188-2.599,2.655s1.164,2.655,2.599,2.655s2.599-1.188,2.599-2.655
				S11.746,3.806,10.311,3.806z M10.354,7.963c-0.836,0-1.515-0.692-1.515-1.548c0-0.854,0.679-1.548,1.515-1.548
				c0.837,0,1.516,0.693,1.516,1.548C11.87,7.271,11.191,7.963,10.354,7.963z"/>
		</g>
	</g>
</g>
</svg>
