<?xml version="1.0" encoding="utf-8"?>
<!-- Generator: Adobe Illustrator 13.0.0, SVG Export Plug-In . SVG Version: 6.00 Build 14948)  -->
<!DOCTYPE svg PUBLIC "-//W3C//DTD SVG 1.1//EN" "http://www.w3.org/Graphics/SVG/1.1/DTD/svg11.dtd">
<svg version="1.1" xmlns="http://www.w3.org/2000/svg" xmlns:xlink="http://www.w3.org/1999/xlink" x="0px" y="0px" width="19px"
	 height="19px" viewBox="0 0 19 19" enable-background="new 0 0 19 19" xml:space="preserve">
<g id="Shape_1_1_" enable-background="new    ">
	<g id="Shape_1">
		<g>
			<path fill="#FFFFFF" d="M3.022,7.76c0.71-3.522,3.762-6.17,7.419-6.17c1.164,0,2.262,0.276,3.247,0.755
				c0.093-0.281,0.251-0.528,0.461-0.723C12.986,1.018,11.675,0.67,10.28,0.67c-4.177,0-7.65,3.058-8.404,7.102
				C2.053,7.68,2.245,7.617,2.457,7.617C2.662,7.617,2.85,7.675,3.022,7.76z M16.746,3.696c-0.13,0.248-0.313,0.463-0.541,0.619
				c1.128,1.352,1.813,3.101,1.813,5.016c0,1.276-0.308,2.478-0.844,3.539c0.305,0.076,0.557,0.25,0.736,0.5
				c0.591-1.188,0.931-2.529,0.931-3.953C18.841,7.227,18.048,5.23,16.746,3.696z M15.771,14.829
				c-1.369,1.385-3.251,2.241-5.33,2.241c-3.896,0-7.101-3.005-7.524-6.87c-0.144,0.056-0.297,0.095-0.46,0.095
				c-0.266,0-0.499-0.101-0.706-0.24c0.321,4.532,4.012,8.108,8.529,8.108c2.456,0,4.664-1.063,6.226-2.755
				C16.191,15.313,15.938,15.108,15.771,14.829z"/>
		</g>
	</g>
</g>
<g id="Shape_3_1_" enable-background="new    ">
	<g id="Shape_3">
		<g>
			<path fill="#FFFFFF" d="M12.626,9.811H8.073c0,0-1.457,0.124-1.821,1.738v2.359h7.952v-2.483
				C14.204,11.425,14.204,10.059,12.626,9.811z M13.219,13.166H7.276v-1.395c0.051-0.774,1.062-1.084,1.062-1.084h3.819
				c0.708,0,1.062,1.084,1.062,1.084V13.166z"/>
		</g>
	</g>
</g>
<g id="Shape_2_1_" enable-background="new    ">
	<g id="Shape_2">
		<g>
			<path fill="#FFFFFF" d="M15.233,0.419c-1.313,0-2.376,1.086-2.376,2.427s1.063,2.428,2.376,2.428s2.376-1.087,2.376-2.428
				S16.546,0.419,15.233,0.419z M15.274,4.353c-0.837,0-1.516-0.693-1.516-1.549c0-0.854,0.679-1.548,1.516-1.548
				s1.516,0.693,1.516,1.548C16.79,3.659,16.111,4.353,15.274,4.353z"/>
		</g>
	</g>
</g>
<g id="Shape_2_copy_1_" enable-background="new    ">
	<g id="Shape_2_copy">
		<g>
			<path fill="#FFFFFF" d="M16.794,11.653c-1.12,0-2.028,0.928-2.028,2.072s0.908,2.072,2.028,2.072s2.028-0.928,2.028-2.072
				S17.914,11.653,16.794,11.653z M16.828,15.012c-0.714,0-1.293-0.592-1.293-1.321c0-0.73,0.579-1.322,1.293-1.322
				c0.715,0,1.294,0.592,1.294,1.322C18.122,14.42,17.543,15.012,16.828,15.012z"/>
		</g>
	</g>
</g>
<g id="Shape_2_copy_2_1_" enable-background="new    ">
	<g id="Shape_2_copy_2">
		<g>
			<path fill="#FFFFFF" d="M2.241,7.11c-1.12,0-2.028,0.928-2.028,2.072s0.908,2.072,2.028,2.072s2.028-0.928,2.028-2.072
				S3.361,7.11,2.241,7.11z M2.275,10.469c-0.714,0-1.294-0.592-1.294-1.322c0-0.729,0.58-1.322,1.294-1.322
				s1.294,0.593,1.294,1.322C3.569,9.877,2.99,10.469,2.275,10.469z"/>
		</g>
	</g>
</g>
<g id="Shape_2_copy_3_1_" enable-background="new    ">
	<g id="Shape_2_copy_3">
		<g>
			<path fill="#FFFFFF" d="M10.311,3.806c-1.436,0-2.599,1.188-2.599,2.655s1.164,2.655,2.599,2.655s2.599-1.188,2.599-2.655
				S11.746,3.806,10.311,3.806z M10.354,7.963c-0.836,0-1.515-0.692-1.515-1.548c0-0.854,0.679-1.548,1.515-1.548
				c0.837,0,1.516,0.693,1.516,1.548C11.87,7.271,11.191,7.963,10.354,7.963z"/>
		</g>
	</g>
</g>
</svg>
