<?xml version="1.0" encoding="utf-8"?>
<!-- Generator: Adobe Illustrator 13.0.0, SVG Export Plug-In . SVG Version: 6.00 Build 14948)  -->
<!DOCTYPE svg PUBLIC "-//W3C//DTD SVG 1.1//EN" "http://www.w3.org/Graphics/SVG/1.1/DTD/svg11.dtd">
<svg version="1.1" xmlns="http://www.w3.org/2000/svg" xmlns:xlink="http://www.w3.org/1999/xlink" x="0px" y="0px" width="19px"
	 height="19px" viewBox="0 0 19 19" enable-background="new 0 0 19 19" xml:space="preserve">
<g id="Shape_1_1_" enable-background="new    ">
	<g id="Shape_1">
		<g>
			<path fill="#A1A1A1" d="M2.992-0.02V19h9.338l4.633-4.228V-0.02H2.992z M16.034,14.568l-4.016,3.387h-8.01V1.003h12.026V14.568z"
				/>
		</g>
	</g>
</g>
<g id="Shape_2_1_" enable-background="new    ">
	<g id="Shape_2">
		<g>
			<rect x="5.006" y="3.969" fill-rule="evenodd" clip-rule="evenodd" fill="#A1A1A1" width="10.004" height="1.046"/>
		</g>
	</g>
</g>
<g id="Shape_3_1_" enable-background="new    ">
	<g id="Shape_3">
		<g>
			<rect x="5.006" y="6.957" fill-rule="evenodd" clip-rule="evenodd" fill="#A1A1A1" width="9.999" height="1.046"/>
		</g>
	</g>
</g>
<g id="Shape_3_copy_1_" enable-background="new    ">
	<g id="Shape_3_copy">
		<g>
			<rect x="5.006" y="9.979" fill-rule="evenodd" clip-rule="evenodd" fill="#A1A1A1" width="5.995" height="0.984"/>
		</g>
	</g>
</g>
<g id="Shape_5_1_" enable-background="new    ">
	<g id="Shape_5">
		<g>
			<polygon fill-rule="evenodd" clip-rule="evenodd" fill="#A1A1A1" points="12,13.969 12,19.031 13,18.021 13,13.969 			"/>
		</g>
	</g>
</g>
<g id="Shape_6_1_" enable-background="new    ">
	<g id="Shape_6">
		<g>
			<polygon fill-rule="evenodd" clip-rule="evenodd" fill="#A1A1A1" points="11.984,13.953 11.984,14.984 16.188,14.984 
				16.922,13.953 			"/>
		</g>
	</g>
</g>
<g id="Shape_7_1_" enable-background="new    ">
	<g id="Shape_7">
		<g>
			<path fill="#A1A1A1" d="M7.087,12.968c-1.149,0-2.081,0.933-2.081,2.081c0,1.149,0.932,2.081,2.081,2.081
				s2.081-0.932,2.081-2.081C9.168,13.9,8.237,12.968,7.087,12.968z M7.057,16.104c-0.6,0-1.086-0.485-1.086-1.085
				c0-0.601,0.486-1.086,1.086-1.086s1.086,0.485,1.086,1.086C8.143,15.619,7.657,16.104,7.057,16.104z"/>
		</g>
	</g>
</g>
</svg>
