<?xml version="1.0" encoding="utf-8"?>
<!-- Generator: Adobe Illustrator 13.0.0, SVG Export Plug-In . SVG Version: 6.00 Build 14948)  -->
<!DOCTYPE svg PUBLIC "-//W3C//DTD SVG 1.1//EN" "http://www.w3.org/Graphics/SVG/1.1/DTD/svg11.dtd">
<svg version="1.1" xmlns="http://www.w3.org/2000/svg" xmlns:xlink="http://www.w3.org/1999/xlink" x="0px" y="0px" width="19px"
	 height="19px" viewBox="0 0 19 19" enable-background="new 0 0 19 19" xml:space="preserve">
<g id="Shape_1_1_" enable-background="new    ">
	<g id="Shape_1">
		<g>
			<path fill="#FFFFFF" d="M9.525-0.051C4.265-0.051,0,4.214,0,9.475S4.265,19,9.525,19s9.525-4.265,9.525-9.525
				S14.786-0.051,9.525-0.051z M9.629,17.672c-4.528,0-8.198-3.67-8.198-8.197s3.67-8.197,8.198-8.197
				c4.527,0,8.197,3.67,8.197,8.197S14.156,17.672,9.629,17.672z"/>
		</g>
	</g>
</g>
<g id="Shape_2_xA0_Image_1_">
</g>
<g id="Shape_2_copy_xA0_Image_1_">
</g>
<g id="Shape_2_copy_2_xA0_Image_1_">
	<circle fill="none" stroke="#FFFFFF" cx="3.708" cy="8.871" r="1.741"/>
	<circle fill="none" stroke="#FFFFFF" cx="15.526" cy="8.747" r="1.741"/>
	<circle fill="none" stroke="#FFFFFF" cx="9.588" cy="7.878" r="3.159"/>
</g>
<g id="Shape_3_1_" enable-background="new    ">
	<g id="Shape_3">
		<g>
			<path fill-rule="evenodd" clip-rule="evenodd" fill="#FFFFFF" d="M1.112,11.926l0.178,1.202c0,0,2.096-2.062,4.167-0.293
				l0.606-0.657C6.064,12.178,3.906,10.011,1.112,11.926z"/>
		</g>
	</g>
</g>
<g id="Shape_3_copy_1_" enable-background="new    ">
	<g id="Shape_3_copy">
		<g>
			<path fill-rule="evenodd" clip-rule="evenodd" fill="#FFFFFF" d="M12.835,11.926l0.366,1.015c0,0,2.096-1.624,3.979-0.105
				l0.606-0.657C17.787,12.178,15.879,9.886,12.835,11.926z"/>
		</g>
	</g>
</g>
<g id="Shape_4_1_" enable-background="new    ">
	<g id="Shape_4">
		<g>
			<path fill-rule="evenodd" clip-rule="evenodd" fill="#FFFFFF" d="M9.5,11.319c0,0-3.891-0.202-5.862,4.194l0.626,0.592
				c0,0,1.294-4.036,5.236-3.935c0,0,3.563-0.296,5.08,4.05l0.681-0.404C15.261,15.816,14.25,11.521,9.5,11.319z"/>
		</g>
	</g>
</g>
</svg>
