<?xml version="1.0" encoding="utf-8"?>
<!-- Generator: Adobe Illustrator 13.0.0, SVG Export Plug-In . SVG Version: 6.00 Build 14948)  -->
<!DOCTYPE svg PUBLIC "-//W3C//DTD SVG 1.1//EN" "http://www.w3.org/Graphics/SVG/1.1/DTD/svg11.dtd">
<svg version="1.1" xmlns="http://www.w3.org/2000/svg" xmlns:xlink="http://www.w3.org/1999/xlink" x="0px" y="0px" width="19px"
	 height="19px" viewBox="0 0 19 19" enable-background="new 0 0 19 19" xml:space="preserve">
<g id="Shape_1_1_" enable-background="new    ">
	<g id="Shape_1">
		<g>
			<path fill="#A1A1A1" d="M18.191,1.957H0.809C0.362,1.957,0,2.327,0,2.783v13.374c0,0.456,0.362,0.826,0.809,0.826h17.383
				c0.446,0,0.809-0.964,0.809-1.42V2.783C19,2.327,18.638,1.957,18.191,1.957z M18.008,15.982H0.954V3.009h17.054V15.982z"/>
		</g>
	</g>
</g>
<g id="Shape_2_1_" enable-background="new    ">
	<g id="Shape_2">
		<g>
			<path fill="#A1A1A1" d="M2.011,3.973V7.98H7.99V3.973H2.011z M7.003,7.008H3.006V4.957h3.997V7.008z"/>
		</g>
	</g>
</g>
<g id="Shape_3_1_" enable-background="new    ">
	<g id="Shape_3">
		<g>
			<rect x="1.996" y="9.961" fill-rule="evenodd" clip-rule="evenodd" fill="#A1A1A1" width="14.008" height="1.017"/>
		</g>
	</g>
</g>
<g id="Shape_4_1_" enable-background="new    ">
	<g id="Shape_4">
		<g>
			<rect x="2.001" y="12.984" fill-rule="evenodd" clip-rule="evenodd" fill="#A1A1A1" width="7.013" height="1.005"/>
		</g>
	</g>
</g>
</svg>
