<?xml version="1.0" encoding="utf-8"?>
<!-- Generator: Adobe Illustrator 13.0.0, SVG Export Plug-In . SVG Version: 6.00 Build 14948)  -->
<!DOCTYPE svg PUBLIC "-//W3C//DTD SVG 1.1//EN" "http://www.w3.org/Graphics/SVG/1.1/DTD/svg11.dtd">
<svg version="1.1" xmlns="http://www.w3.org/2000/svg" xmlns:xlink="http://www.w3.org/1999/xlink" x="0px" y="0px" width="19px"
	 height="19px" viewBox="0 0 19 19" enable-background="new 0 0 19 19" xml:space="preserve">
<g id="Shape_1_1_" enable-background="new    ">
	<g id="Shape_1">
		<g>
			<path fill="#A1A1A1" d="M3.926,0.736c-1.469,0-2.66,1.153-2.66,2.575s1.191,2.575,2.66,2.575s2.661-1.153,2.661-2.575
				S5.396,0.736,3.926,0.736z M4.003,4.567c-0.674,0-1.22-0.529-1.22-1.181s0.546-1.181,1.22-1.181c0.673,0,1.22,0.529,1.22,1.181
				S4.677,4.567,4.003,4.567z"/>
		</g>
	</g>
</g>
<g id="Shape_1_copy_1_" enable-background="new    ">
	<g id="Shape_1_copy">
		<g>
			<path fill="#A1A1A1" d="M16.101,1.044c-1.093,0-1.979,0.858-1.979,1.917s0.887,1.916,1.979,1.916
				c1.094,0,1.979-0.857,1.979-1.916S17.194,1.044,16.101,1.044z M16.162,3.953c-0.559,0-1.013-0.438-1.013-0.98
				s0.454-0.98,1.013-0.98c0.561,0,1.013,0.438,1.013,0.98S16.723,3.953,16.162,3.953z"/>
		</g>
	</g>
</g>
<g id="Shape_1_copy_2_1_" enable-background="new    ">
	<g id="Shape_1_copy_2">
		<g>
			<path fill="#A1A1A1" d="M16.101,7.305c-1.093,0-1.979,0.858-1.979,1.917s0.887,1.916,1.979,1.916
				c1.094,0,1.979-0.857,1.979-1.916S17.194,7.305,16.101,7.305z M16.162,10.172c-0.535,0-0.969-0.42-0.969-0.938
				c0-0.519,0.434-0.939,0.969-0.939c0.536,0,0.971,0.42,0.971,0.939C17.133,9.752,16.698,10.172,16.162,10.172z"/>
		</g>
	</g>
</g>
<g id="Shape_1_copy_3_1_" enable-background="new    ">
	<g id="Shape_1_copy_3">
		<g>
			<path fill="#A1A1A1" d="M16.101,13.957c-1.093,0-1.979,0.858-1.979,1.917s0.887,1.916,1.979,1.916
				c1.094,0,1.979-0.857,1.979-1.916S17.194,13.957,16.101,13.957z M16.162,16.864c-0.558,0-1.01-0.438-1.01-0.978
				s0.452-0.978,1.01-0.978s1.01,0.438,1.01,0.978S16.72,16.864,16.162,16.864z"/>
		</g>
	</g>
</g>
<g id="Shape_2_1_" enable-background="new    ">
	<g id="Shape_2">
		<g>
			<polygon fill="#A1A1A1" points="12.996,3.997 12.996,3.006 11.005,3.006 11.005,8.964 8.996,8.964 8.996,10.009 11.005,10.009 
				11.005,15.997 12.996,15.997 12.996,14.958 12.012,14.958 12.012,10.009 12.994,10.009 12.994,8.964 12.012,8.964 12.012,3.997 
							"/>
		</g>
	</g>
</g>
<g id="Shape_3_1_" enable-background="new    ">
	<g id="Shape_3">
		<g>
			<path fill="#A1A1A1" d="M5.919,5.973L2.131,5.924c0,0-2.045,0.117-2.146,2.367v3.815c0,0-0.038,1.125,0.998,1.125v3.658
				c0,0,0.188,1.027,1.148,1.125h3.855c0,0,1.036,0.073,1.036-1.174v-3.487c0,0,1.007-0.056,0.994-0.909V8.34
				C8.016,8.34,7.991,5.997,5.919,5.973z M5.145,12.908v3.165c0,0,0,0.561-0.435,0.505H3.234c0,0-0.492-0.029-0.376-0.7v-2.94
				c0,0-1.07,0.167-1.129-0.842L1.701,8.707c0,0-0.116-1.081,1.042-1.332h2.426c0,0,1.042-0.012,1.129,1.304v3.388
				C6.297,12.067,6.36,13.021,5.145,12.908z"/>
		</g>
	</g>
</g>
</svg>
