<?xml version="1.0" encoding="utf-8"?>
<!-- Generator: Adobe Illustrator 13.0.0, SVG Export Plug-In . SVG Version: 6.00 Build 14948)  -->
<!DOCTYPE svg PUBLIC "-//W3C//DTD SVG 1.1//EN" "http://www.w3.org/Graphics/SVG/1.1/DTD/svg11.dtd">
<svg version="1.1" xmlns="http://www.w3.org/2000/svg" xmlns:xlink="http://www.w3.org/1999/xlink" x="0px" y="0px" width="19px"
	 height="19px" viewBox="0 0 19 19" enable-background="new 0 0 19 19" xml:space="preserve">
<g id="Shape_7_1_" enable-background="new    ">
	<g id="Shape_7">
		<g>
			<path fill="#A1A1A1" d="M3.001,0.992h10.994v2.352h1.008V1.202c0-0.684-0.543-1.239-1.212-1.239H3.208
				c-0.67,0-1.213,0.556-1.213,1.239v13.531c0,0.685,0.543,1.239,1.213,1.239h1.799v-0.958H3.001V0.992z"/>
		</g>
	</g>
</g>
<g id="Shape_1_1_" enable-background="new    ">
	<g id="Shape_1">
		<g>
			<path fill="#A1A1A1" d="M5,2.975v16.03h7.966l4.029-4.288V2.975H5z M16,14.536l-3.306,3.446H6.009V4.008H16V14.536z"/>
		</g>
	</g>
</g>
<g id="Shape_5_1_" enable-background="new    ">
	<g id="Shape_5">
		<g>
			<polygon fill-rule="evenodd" clip-rule="evenodd" fill="#A1A1A1" points="11.991,13.715 11.991,18.995 12.986,18.17 
				12.986,13.715 			"/>
		</g>
	</g>
</g>
<g id="Shape_6_1_" enable-background="new    ">
	<g id="Shape_6">
		<g>
			<rect x="12.003" y="13.696" fill-rule="evenodd" clip-rule="evenodd" fill="#A1A1A1" width="4.919" height="1.01"/>
		</g>
	</g>
</g>
<g id="Shape_2_1_" enable-background="new    ">
	<g id="Shape_2">
		<g>
			<rect x="6.998" y="7.009" fill-rule="evenodd" clip-rule="evenodd" fill="#A1A1A1" width="8" height="0.981"/>
		</g>
	</g>
</g>
<g id="Shape_3_1_" enable-background="new    ">
	<g id="Shape_3">
		<g>
			<rect x="6.998" y="9.003" fill-rule="evenodd" clip-rule="evenodd" fill="#A1A1A1" width="7.996" height="0.951"/>
		</g>
	</g>
</g>
<g id="Shape_3_copy_1_" enable-background="new    ">
	<g id="Shape_3_copy">
		<g>
			<rect x="6.998" y="10.991" fill-rule="evenodd" clip-rule="evenodd" fill="#A1A1A1" width="5.006" height="0.969"/>
		</g>
	</g>
</g>
</svg>
