<?xml version="1.0" encoding="utf-8"?>
<!-- Generator: Adobe Illustrator 13.0.0, SVG Export Plug-In . SVG Version: 6.00 Build 14948)  -->
<!DOCTYPE svg PUBLIC "-//W3C//DTD SVG 1.1//EN" "http://www.w3.org/Graphics/SVG/1.1/DTD/svg11.dtd">
<svg version="1.1" xmlns="http://www.w3.org/2000/svg" xmlns:xlink="http://www.w3.org/1999/xlink" x="0px" y="0px" width="19px"
	 height="19px" viewBox="0 0 19 19" enable-background="new 0 0 19 19" xml:space="preserve">
<g id="Shape_1_1_" enable-background="new    ">
	<g id="Shape_1">
		<g>
			<path fill="#A1A1A1" d="M15.97,15.969V0.957h0.034v-0.991H15.97v-0.069h-0.957v0.069h-4.028v4.005H2.986V3.937H1.998v12.032
				H1.016v3.044H17v-3.044H15.97z M2.986,4.978h7.999v0.035h0.984V4.978h0.002V3.971h-0.002V0.957h3.044v15.012h-4.033v-2.963
				l-0.813-0.802l-0.19-0.192H5.045v-0.034l-0.347,0.329l-0.742,0.685h0.036v2.978H2.986V4.978z M9.998,12.991v2.978H5.02
				l0.019-2.978H9.998z M16.004,18.006H1.99v-1.032h14.014V18.006z"/>
		</g>
	</g>
</g>
<g id="Shape_2_1_" enable-background="new    ">
	<g id="Shape_2">
		<g>
			<path fill="#A1A1A1" d="M7.439,6.811c-1.025,0-1.856,0.85-1.856,1.897c0,1.047,0.831,1.896,1.856,1.896s1.856-0.85,1.856-1.896
				C9.295,7.66,8.464,6.811,7.439,6.811z M7.419,10.004c-0.679,0-1.229-0.563-1.229-1.257S6.74,7.49,7.419,7.49
				s1.23,0.563,1.23,1.257S8.098,10.004,7.419,10.004z"/>
		</g>
	</g>
</g>
</svg>
