<?xml version="1.0" encoding="utf-8"?>
<!-- Generator: Adobe Illustrator 13.0.0, SVG Export Plug-In . SVG Version: 6.00 Build 14948)  -->
<!DOCTYPE svg PUBLIC "-//W3C//DTD SVG 1.1//EN" "http://www.w3.org/Graphics/SVG/1.1/DTD/svg11.dtd">
<svg version="1.1" xmlns="http://www.w3.org/2000/svg" xmlns:xlink="http://www.w3.org/1999/xlink" x="0px" y="0px" width="19px"
	 height="19px" viewBox="0 0 19 19" enable-background="new 0 0 19 19" xml:space="preserve">
<g id="Shape_1_1_" enable-background="new    ">
	<g id="Shape_1">
		<g>
			<path fill="#A1A1A1" d="M0.989,4.997h9.406V3.962H0.989V4.997z M13.602,3.962v1.035h4.394V3.962H13.602z"/>
		</g>
	</g>
</g>
<g id="Shape_1_copy_1_" enable-background="new    ">
	<g id="Shape_1_copy">
		<g>
			<path fill="#A1A1A1" d="M13.602,13.979v1.004h4.394v-1.004H13.602z M0.989,14.983h9.406v-1.004H0.989V14.983z"/>
		</g>
	</g>
</g>
<g id="Shape_1_copy_2_1_" enable-background="new    ">
	<g id="Shape_1_copy_2">
		<g>
			<path fill="#A1A1A1" d="M0.986,10.005h5.307V9.002H0.986V10.005z M9.5,9.002v1.003h8.493V9.002H9.5z"/>
		</g>
	</g>
</g>
<g id="Shape_2_1_" enable-background="new    ">
	<g id="Shape_2">
		<g>
			<path fill="#A1A1A1" d="M12.092,2.327c-1.173,0-2.124,0.921-2.124,2.057s0.951,2.057,2.124,2.057
				c1.174,0,2.125-0.921,2.125-2.057S13.266,2.327,12.092,2.327z M12.092,5.638c-0.687,0-1.242-0.538-1.242-1.202
				s0.556-1.203,1.242-1.203s1.242,0.539,1.242,1.203S12.778,5.638,12.092,5.638z"/>
		</g>
	</g>
</g>
<g id="Shape_2_copy_1_" enable-background="new    ">
	<g id="Shape_2_copy">
		<g>
			<path fill="#A1A1A1" d="M7.646,7.414c-1.173,0-2.125,0.921-2.125,2.057s0.951,2.057,2.125,2.057S9.77,10.606,9.77,9.471
				S8.819,7.414,7.646,7.414z M7.645,10.725c-0.686,0-1.242-0.538-1.242-1.202s0.556-1.203,1.242-1.203s1.243,0.539,1.243,1.203
				S8.331,10.725,7.645,10.725z"/>
		</g>
	</g>
</g>
<g id="Shape_2_copy_2_1_" enable-background="new    ">
	<g id="Shape_2_copy_2">
		<g>
			<path fill="#A1A1A1" d="M12.092,12.423c-1.173,0-2.124,0.921-2.124,2.057s0.951,2.056,2.124,2.056
				c1.174,0,2.125-0.92,2.125-2.056S13.266,12.423,12.092,12.423z M12.092,15.733c-0.687,0-1.242-0.539-1.242-1.203
				s0.556-1.202,1.242-1.202s1.242,0.538,1.242,1.202S12.778,15.733,12.092,15.733z"/>
		</g>
	</g>
</g>
</svg>
