<?xml version="1.0" encoding="utf-8"?>
<!-- Generator: Adobe Illustrator 13.0.0, SVG Export Plug-In . SVG Version: 6.00 Build 14948)  -->
<!DOCTYPE svg PUBLIC "-//W3C//DTD SVG 1.1//EN" "http://www.w3.org/Graphics/SVG/1.1/DTD/svg11.dtd">
<svg version="1.1" id="Layer_1" xmlns="http://www.w3.org/2000/svg" xmlns:xlink="http://www.w3.org/1999/xlink" x="0px" y="0px"
	 width="17.535px" height="17.536px" viewBox="0 0 17.535 17.536" enable-background="new 0 0 17.535 17.536" xml:space="preserve">
<g>
	<path fill="#A1A1A1" d="M16.247,0.21H1.289c-0.595,0-1.08,0.483-1.08,1.08v14.956c0,0.596,0.485,1.08,1.08,1.08h14.958
		c0.595,0,1.08-0.484,1.08-1.08V1.29C17.327,0.693,16.842,0.21,16.247,0.21 M16.826,16.246c0,0.321-0.26,0.582-0.579,0.582H1.289
		c-0.32,0-0.581-0.261-0.581-0.582V3.2h16.118V16.246z M16.826,2.702H0.708V1.29c0-0.32,0.261-0.582,0.581-0.582h14.958
		c0.319,0,0.579,0.262,0.579,0.582V2.702z"/>
	<path fill="#A1A1A1" d="M16.245,17.536H1.29c-0.711,0-1.29-0.578-1.29-1.29V1.291C0,0.579,0.578,0,1.29,0h14.956
		c0.712,0,1.29,0.579,1.29,1.291v14.955C17.535,16.958,16.957,17.536,16.245,17.536 M1.29,0.419c-0.479,0-0.871,0.391-0.871,0.871
		v14.955c0,0.479,0.392,0.87,0.871,0.87h14.956c0.481,0,0.871-0.391,0.871-0.87V1.291c0-0.48-0.39-0.871-0.871-0.871H1.29z
		 M16.245,17.038H1.29c-0.436,0-0.792-0.355-0.792-0.792V2.992h16.539v13.254C17.037,16.682,16.682,17.038,16.245,17.038
		 M0.917,3.41v12.835c0,0.206,0.167,0.373,0.372,0.373h14.956c0.206,0,0.371-0.167,0.371-0.373V3.41H0.917z M17.037,2.913H0.498
		V1.291c0-0.437,0.355-0.792,0.792-0.792h14.956c0.437,0,0.792,0.354,0.792,0.792V2.913z M0.917,2.492h15.699V1.291
		c0-0.206-0.165-0.372-0.371-0.372H1.29c-0.205,0-0.372,0.166-0.372,0.372V2.492z"/>
	<polygon fill="#A1A1A1" points="6.703,11.87 3.477,10.252 3.477,10.235 6.703,8.619 6.703,8.049 2.874,10.022 2.874,10.467 
		6.703,12.44 	"/>
	<path fill="#A1A1A1" d="M6.912,12.782l-4.248-2.186V9.894l4.248-2.19v1.044l-2.984,1.497l2.984,1.496V12.782z M3.083,10.339
		l3.409,1.756v-0.097l-3.226-1.617v-0.259l0.115-0.074l3.111-1.56V8.393l-3.409,1.755V10.339z"/>
	<polygon fill="#A1A1A1" points="10.573,6.786 10.012,6.786 7.71,12.768 8.264,12.768 	"/>
	<path fill="#A1A1A1" d="M8.407,12.98H7.404l2.465-6.404h1.011L8.407,12.98z M8.016,12.559H8.12l2.149-5.563h-0.112L8.016,12.559z"
		/>
	<polygon fill="#A1A1A1" points="14.924,10.012 11.095,8.049 11.095,8.619 14.346,10.236 14.346,10.251 11.095,11.87 11.095,12.439 
		14.924,10.475 	"/>
	<path fill="#A1A1A1" d="M10.884,12.782V11.74l3.007-1.495l-3.007-1.496V7.707l4.249,2.178v0.719L10.884,12.782z M11.305,12v0.096
		l3.409-1.749V10.14l-3.409-1.748v0.096l3.251,1.618v0.261l-0.117,0.073L11.305,12z"/>
</g>
</svg>
