<?xml version="1.0" encoding="utf-8"?>
<!-- Generator: Adobe Illustrator 13.0.0, SVG Export Plug-In . SVG Version: 6.00 Build 14948)  -->
<!DOCTYPE svg PUBLIC "-//W3C//DTD SVG 1.1//EN" "http://www.w3.org/Graphics/SVG/1.1/DTD/svg11.dtd">
<svg version="1.1" xmlns="http://www.w3.org/2000/svg" xmlns:xlink="http://www.w3.org/1999/xlink" x="0px" y="0px"
	 width="19.004px" height="19.004px" viewBox="0 0 19.004 19.004" enable-background="new 0 0 19.004 19.004" xml:space="preserve">
<g id="Shape_1_1_" enable-background="new    ">
	<g id="Shape_1">
		<g>
			<path fill="#A1A1A1" d="M9.526-0.051C4.265-0.051,0,4.215,0,9.477s4.265,9.527,9.527,9.527s9.527-4.266,9.527-9.527
				S14.788-0.051,9.526-0.051z M9.63,17.676c-4.529,0-8.2-3.671-8.2-8.199s3.671-8.199,8.2-8.199c4.528,0,8.199,3.671,8.199,8.199
				S14.158,17.676,9.63,17.676z"/>
		</g>
	</g>
</g>
<g id="Shape_2_1_" enable-background="new    ">
	<g id="Shape_2">
		<g>
			<path fill="#A1A1A1" d="M9.681,3.882c-1.425,0-2.58,1.155-2.58,2.58c0,1.425,1.155,2.58,2.58,2.58s2.58-1.155,2.58-2.58
				C12.261,5.037,11.105,3.882,9.681,3.882z M9.706,7.867c-0.818,0-1.481-0.663-1.481-1.48c0-0.819,0.664-1.482,1.481-1.482
				c0.818,0,1.481,0.663,1.481,1.482C11.188,7.204,10.524,7.867,9.706,7.867z"/>
		</g>
	</g>
</g>
<g id="Shape_3_1_" enable-background="new    ">
	<g id="Shape_3">
		<g>
			<path fill="#A1A1A1" d="M12.396,9.017H6.922c0,0-1.56-0.08-1.924,1.534v2.514h8.976v-2.638
				C13.974,10.427,13.974,9.265,12.396,9.017z M12.987,12.016H5.971v-1.242c0.05-0.774,0.959-0.727,0.959-0.727h4.996
				c0.707,0,1.061,1.084,1.061,1.084V12.016z"/>
		</g>
	</g>
</g>
</svg>
