<?xml version="1.0" encoding="utf-8"?>
<!-- Generator: Adobe Illustrator 13.0.0, SVG Export Plug-In . SVG Version: 6.00 Build 14948)  -->
<!DOCTYPE svg PUBLIC "-//W3C//DTD SVG 1.1//EN" "http://www.w3.org/Graphics/SVG/1.1/DTD/svg11.dtd">
<svg version="1.1" xmlns="http://www.w3.org/2000/svg" xmlns:xlink="http://www.w3.org/1999/xlink" x="0px" y="0px" width="19px"
	 height="19px" viewBox="0 0 19 19" enable-background="new 0 0 19 19" xml:space="preserve">
<g id="Shape_1_1_" enable-background="new    ">
	<g id="Shape_1">
		<g>
			<path fill-rule="evenodd" clip-rule="evenodd" fill="#A1A1A1" d="M11.03,0.031H6.006c0,0-0.894,0.151-1.009,1.331L4.995,3.035
				l0.998-0.038v-1.28c0,0,0.398-0.768,0.756-0.729h3.642c0,0,0.636,0.14,0.636,0.906v1.108h0.976V1.599
				C12.002,1.599,11.98,0.149,11.03,0.031z"/>
		</g>
	</g>
</g>
<g id="Shape_2_1_" enable-background="new    ">
	<g id="Shape_2">
		<g>
			<path fill="#A1A1A1" d="M12.59,16.99H3.812c-1.563,0-2.864-1.295-2.864-2.892V9.018h6.063V8.015H0.947V7.729
				c0-1.597,1.301-2.718,2.864-2.718h8.894c1.563,0,3.281,1.121,3.281,2.718v0.285h-5.984v1.003h5.984v0.601h1.017V6.903
				c0-1.597-1.753-2.891-3.316-2.891H3.176C1.613,4.013,0,5.307,0,6.903v8.021c0,1.597,1.614,3.065,3.177,3.065h9.414V16.99z"/>
		</g>
	</g>
</g>
<g id="Shape_3_1_" enable-background="new    ">
	<g id="Shape_3">
		<g>
			<path fill="#A1A1A1" d="M9.552,6.019H8.201c-0.67,0-1.213,0.555-1.213,1.239v3.488c0,0.685,0.543,1.239,1.213,1.239h1.352
				c0.67,0,1.421-0.555,1.421-1.239V7.258C10.974,6.573,10.223,6.019,9.552,6.019z M10.015,10.576c0,0.228-0.181,0.413-0.404,0.413
				H8.409c-0.223,0-0.404-0.186-0.404-0.413v-3.2c0-0.229,0.181-0.413,0.404-0.413H9.61c0.223,0,0.404,0.185,0.404,0.413V10.576z"/>
		</g>
	</g>
</g>
<g id="Shape_4_1_" enable-background="new    ">
	<g id="Shape_4">
		<g>
			<path fill="#A1A1A1" d="M15.997,10.267c-0.989,0-1.79,0.819-1.79,1.83c0,1.01,0.801,1.829,1.79,1.829
				c0.988,0,1.79-0.819,1.79-1.829C17.787,11.086,16.985,10.267,15.997,10.267z M15.997,13.218c-0.606,0-1.098-0.502-1.098-1.121
				s0.491-1.121,1.098-1.121c0.605,0,1.097,0.502,1.097,1.121S16.603,13.218,15.997,13.218z"/>
		</g>
	</g>
</g>
<g id="Shape_5_1_" enable-background="new    ">
	<g id="Shape_5">
		<g>
			<path fill="#A1A1A1" d="M15.997,14.397c-1.563,0-2.83,1.295-2.83,2.892c0,0.121,0.021,0.236,0.035,0.354h0.736
				c-0.007-0.069-0.021-0.136-0.021-0.206c0-1.223,0.97-2.213,2.166-2.213c1.195,0,2.165,0.99,2.165,2.213
				c0,0.07-0.014,0.137-0.021,0.206h0.563c0.015-0.117,0.035-0.232,0.035-0.354C18.827,15.692,17.56,14.397,15.997,14.397z"/>
		</g>
	</g>
</g>
</svg>
