<?xml version="1.0" encoding="utf-8"?>
<!-- Generator: Adobe Illustrator 26.0.0, SVG Export Plug-In . SVG Version: 6.00 Build 0)  -->
<svg version="1.1" id="Layer_1" xmlns="http://www.w3.org/2000/svg" xmlns:xlink="http://www.w3.org/1999/xlink" x="0px" y="0px"
	 viewBox="0 0 180 53" style="enable-background:new 0 0 180 53;" xml:space="preserve">
<style type="text/css">
	.st0{fill:#FFFFFF;}
	.st1{fill:url(#SVGID_1_);}
	.st2{fill:#1484C6;}
</style>
<g>
	<rect x="10.75" y="18.92" class="st0" width="30.39" height="13.19"/>
	<rect x="16.33" y="6.01" class="st0" width="19.75" height="42.54"/>
	<linearGradient id="SVGID_1_" gradientUnits="userSpaceOnUse" x1="8.8207" y1="43.5241" x2="43.5987" y2="8.7461">
		<stop  offset="0" style="stop-color:#009D6E"/>
		<stop  offset="1" style="stop-color:#86C87E"/>
	</linearGradient>
	<path class="st1" d="M36.08,16.26V15c-2.78,2.06-2.93,4.05-3.66,5.1c-1.31,1.87-2.47,1.63-2.69,0.95
		c-0.34-1.05,0.12-3.82-0.85-3.82c-3.84,0.01-6.9,0.17-9.36,4.89c-2.46,4.72-4.2,2.79-4.2,2.79s3.15-7.72,5.52-10.32
		c1.78-1.96,6.11-2.61,9.68-3.44c2.11-0.49,3.95-1.24,5.55-2.09V1.23H16.33v15.03H1.31v19.75h15.03v2.43
		c2.99-2.12,3.13-4.18,3.88-5.26c1.31-1.87,2.47-1.63,2.69-0.95c0.34,1.05-0.12,3.82,0.85,3.82c3.84-0.01,6.9-0.17,9.36-4.89
		c2.46-4.72,4.2-2.79,4.2-2.79s-3.15,7.72-5.52,10.32c-1.78,1.96-6.11,2.61-9.68,3.44c-2.21,0.51-4.12,1.32-5.78,2.21v6.71h19.75
		V36.01h15.03V16.26H36.08z M26.21,31.12c-3.06-1.02-5.02-3.65-4.62-5.87c0.27-1.47,1.65-2.3,2.9-1.87
		c1.24,0.43,1.72,1.26,1.72,1.26s0.48-0.83,1.72-1.26c1.24-0.43,2.63,0.4,2.9,1.87C31.23,27.46,29.27,30.09,26.21,31.12z"/>
	<path class="st2" d="M16.26,16.26h0.08V1.23h19.75v7.84c-1.6,0.84-3.44,1.6-5.55,2.09c-3.57,0.83-7.9,1.48-9.68,3.44
		c-0.87,0.96-1.85,2.61-2.74,4.32C17.46,18.06,16.84,17.17,16.26,16.26z M22.4,23.8c0.57-0.49,1.35-0.68,2.08-0.43
		c1.24,0.43,1.72,1.26,1.72,1.26s0.48-0.83,1.72-1.26c1.24-0.43,2.63,0.4,2.9,1.87c0.25,1.38-0.42,2.93-1.71,4.15
		c0.73,0.52,1.48,1.03,2.23,1.52c0.46,0.3,0.93,0.59,1.4,0.89c0.12-0.21,0.24-0.42,0.36-0.65c2.46-4.72,4.2-2.79,4.2-2.79
		s-0.95,2.33-2.21,4.86c1.71,1,3.49,1.95,5.32,2.79h10.68V16.26H36.08V15c-2.78,2.06-2.93,4.05-3.66,5.1
		c-1.31,1.87-2.47,1.63-2.69,0.95c-0.34-1.05,0.12-3.82-0.85-3.82c-3.59,0.01-6.49,0.15-8.86,4.02
		C20.78,22.14,21.58,22.98,22.4,23.8z"/>
</g>
<g>
	<g>
		<path class="st0" d="M61.7,32.8V19.97h3.88l2.33,8.75l2.3-8.75h3.89V32.8h-2.41V22.7l-2.55,10.1h-2.5L64.1,22.7v10.1H61.7z"/>
		<path class="st0" d="M76.66,32.8V19.97h4.16c1.57,0,2.6,0.06,3.08,0.19c0.73,0.19,1.35,0.61,1.85,1.26
			c0.49,0.65,0.74,1.48,0.74,2.5c0,0.79-0.14,1.45-0.43,1.99c-0.29,0.54-0.65,0.96-1.09,1.27c-0.44,0.31-0.89,0.51-1.34,0.61
			c-0.62,0.12-1.51,0.18-2.69,0.18h-1.69v4.84H76.66z M79.25,22.14v3.64h1.42c1.02,0,1.7-0.07,2.05-0.2
			c0.35-0.13,0.62-0.34,0.81-0.63c0.2-0.29,0.29-0.62,0.29-1c0-0.47-0.14-0.85-0.41-1.15c-0.27-0.3-0.62-0.49-1.04-0.57
			c-0.31-0.06-0.93-0.09-1.86-0.09H79.25z"/>
		<path class="st0" d="M88.54,32.8V19.97h2.59V32.8H88.54z"/>
		<path class="st0" d="M93.67,32.8V20.07h2.59v10.57h6.44v2.16H93.67z"/>
		<path class="st0" d="M105.38,32.8l-3.06-12.83h2.65l1.93,8.81l2.35-8.81h3.08l2.25,8.96l1.97-8.96h2.61l-3.12,12.83h-2.75
			l-2.56-9.59l-2.55,9.59H105.38z"/>
		<path class="st0" d="M120.48,32.8V19.97H130v2.17h-6.93v2.85h6.44v2.16h-6.44v3.49h7.17v2.16H120.48z"/>
		<path class="st0" d="M132.47,32.8V19.97h2.52l5.25,8.57v-8.57h2.41V32.8h-2.6l-5.17-8.37v8.37H132.47z"/>
		<path class="st0" d="M145.39,32.8V19.97h2.59v5.05h5.08v-5.05h2.59V32.8h-2.59v-5.61h-5.08v5.61H145.39z"/>
		<path class="st0" d="M158.4,32.8V20.07h2.59v10.57h6.44v2.16H158.4z"/>
		<path class="st0" d="M169.28,32.8V19.97h9.51v2.17h-6.92v2.85h6.44v2.16h-6.44v3.49h7.17v2.16H169.28z"/>
	</g>
	<g>
		<path class="st0" d="M86.67,43.63l1.05-0.09c0.05,0.42,0.17,0.77,0.35,1.04c0.18,0.27,0.46,0.49,0.85,0.65
			c0.38,0.17,0.81,0.25,1.29,0.25c0.43,0,0.8-0.06,1.12-0.19c0.33-0.13,0.57-0.3,0.73-0.52c0.16-0.22,0.24-0.46,0.24-0.72
			c0-0.26-0.08-0.49-0.23-0.69c-0.15-0.2-0.41-0.36-0.76-0.5c-0.22-0.09-0.72-0.22-1.5-0.41c-0.77-0.19-1.31-0.36-1.62-0.52
			c-0.4-0.21-0.7-0.47-0.9-0.78c-0.2-0.31-0.3-0.66-0.3-1.05c0-0.42,0.12-0.82,0.36-1.19c0.24-0.37,0.59-0.65,1.06-0.84
			c0.46-0.19,0.98-0.29,1.54-0.29c0.62,0,1.17,0.1,1.65,0.3c0.48,0.2,0.84,0.5,1.1,0.89c0.26,0.39,0.39,0.83,0.41,1.33l-1.07,0.08
			c-0.06-0.53-0.25-0.93-0.58-1.2s-0.82-0.41-1.47-0.41c-0.67,0-1.16,0.12-1.47,0.37c-0.31,0.25-0.46,0.54-0.46,0.89
			c0,0.3,0.11,0.55,0.33,0.75c0.21,0.2,0.77,0.4,1.68,0.6c0.9,0.2,1.52,0.38,1.86,0.54c0.49,0.22,0.85,0.51,1.08,0.86
			c0.23,0.35,0.35,0.75,0.35,1.2c0,0.45-0.13,0.87-0.38,1.26c-0.26,0.4-0.62,0.7-1.1,0.92c-0.48,0.22-1.02,0.33-1.62,0.33
			c-0.76,0-1.4-0.11-1.91-0.33c-0.51-0.22-0.92-0.56-1.21-1C86.84,44.69,86.69,44.19,86.67,43.63z"/>
		<path class="st0" d="M96.35,46.33l-2.23-8.41h1.14l1.28,5.51c0.14,0.58,0.26,1.15,0.36,1.72c0.21-0.9,0.34-1.42,0.38-1.55
			l1.6-5.68h1.34l1.2,4.26c0.3,1.06,0.52,2.05,0.65,2.98c0.11-0.53,0.25-1.14,0.42-1.83l1.32-5.4h1.12l-2.31,8.41h-1.07l-1.77-6.41
			c-0.15-0.53-0.24-0.86-0.26-0.99c-0.09,0.39-0.17,0.72-0.25,0.99l-1.78,6.41H96.35z"/>
		<path class="st0" d="M104.61,46.33l3.23-8.41h1.2l3.44,8.41h-1.27l-0.98-2.55h-3.52l-0.92,2.55H104.61z M107.04,42.88h2.85
			l-0.88-2.33c-0.27-0.71-0.47-1.29-0.6-1.74c-0.11,0.54-0.26,1.07-0.45,1.6L107.04,42.88z"/>
		<path class="st0" d="M112.7,46.33V45.3l4.31-5.39c0.31-0.38,0.6-0.72,0.87-1h-4.69v-0.99h6.02v0.99l-4.72,5.83l-0.51,0.59h5.37
			v0.99H112.7z"/>
		<path class="st0" d="M120.73,46.33v-8.41h1.11v8.41H120.73z"/>
		<path class="st0" d="M123.27,43.81v-1.04h3.17v1.04H123.27z"/>
		<path class="st0" d="M127.75,46.33v-8.41h1.11v3.45h4.37v-3.45h1.11v8.41h-1.11v-3.96h-4.37v3.96H127.75z"/>
		<path class="st0" d="M136.17,46.33v-8.41h1.67l1.99,5.95c0.19,0.56,0.32,0.97,0.4,1.25c0.1-0.31,0.25-0.76,0.45-1.35l2.01-5.85
			h1.5v8.41h-1.07v-7.04l-2.44,7.04h-1l-2.43-7.16v7.16H136.17z"/>
		<path class="st0" d="M145.65,42.23c0-1.39,0.38-2.49,1.12-3.28c0.75-0.79,1.72-1.18,2.9-1.18c0.78,0,1.48,0.19,2.1,0.56
			c0.62,0.37,1.1,0.89,1.43,1.55s0.49,1.42,0.49,2.26c0,0.85-0.17,1.62-0.52,2.29c-0.35,0.67-0.83,1.18-1.46,1.53
			c-0.63,0.35-1.31,0.52-2.04,0.52c-0.79,0-1.5-0.19-2.12-0.57c-0.62-0.38-1.09-0.9-1.42-1.57
			C145.81,43.67,145.65,42.97,145.65,42.23z M146.8,42.25c0,1.01,0.27,1.81,0.82,2.39c0.55,0.58,1.23,0.87,2.05,0.87
			c0.84,0,1.53-0.29,2.07-0.88c0.54-0.59,0.81-1.42,0.81-2.51c0-0.68-0.12-1.28-0.35-1.79c-0.23-0.51-0.57-0.91-1.02-1.19
			c-0.44-0.28-0.94-0.42-1.5-0.42c-0.79,0-1.46,0.27-2.03,0.81C147.08,40.08,146.8,40.99,146.8,42.25z"/>
	</g>
</g>
</svg>
